<svg xmlns="http://www.w3.org/2000/svg" xmlns:xlink="http://www.w3.org/1999/xlink" width="500pt" height="20pt" viewBox="0 0 500 20" version="1.1">
<g id="surface1">
<path style="fill:none;stroke-width:2;stroke-linecap:butt;stroke-linejoin:round;stroke:#5181b8;stroke-opacity:1;stroke-miterlimit:4;" d="M 11.375 3.505469 C 7 4.998437 4.500781 9.001562 4.500781 13.250781 C 4.500781 18.910937 9.089062 23.499219 14.749219 23.499219 C 18.998437 23.499219 23.001562 21 24.5 16.625 C 22.684375 17.2375 20.885156 17.374219 19.102344 17.035156 C 16.422656 16.526563 14.765625 15.230469 13.770312 14.229687 C 12.775 13.228906 11.511719 11.659375 10.970312 9.001562 C 10.609375 7.235156 10.746094 5.403125 11.375 3.505469 Z M 11.375 3.505469 " transform="matrix(0.714286,0,0,0.714286,0,0)"/>
<path style="fill:none;stroke-width:2;stroke-linecap:butt;stroke-linejoin:round;stroke:#5181b8;stroke-opacity:1;stroke-miterlimit:4;" d="M 39.33125 3.538281 C 34.967187 5.053125 32.489844 9.061719 32.511719 13.305469 C 32.544531 18.954687 37.149219 23.510156 42.798437 23.477344 C 47.042187 23.455469 51.023438 20.934375 52.489062 16.559375 C 50.689844 17.177344 48.896094 17.319531 47.113281 16.991406 C 44.444531 16.49375 42.7875 15.208594 41.786719 14.213281 C 40.785937 13.217969 39.522656 11.664844 38.964844 9.023438 C 38.592969 7.2625 38.713281 5.435937 39.33125 3.538281 Z M 39.33125 3.538281 " transform="matrix(0.714286,0,0,0.714286,0,0)"/>
<path style="fill:none;stroke-width:0.034538;stroke-linecap:round;stroke-linejoin:miter;stroke:#5181b8;stroke-opacity:0.0156863;stroke-dasharray:0.00742641,2.992574;stroke-dashoffset:1.503713;stroke-miterlimit:4;" d="M 42.049219 23.001562 L 42.065625 25.998437 " transform="matrix(0.714286,0,0,0.714286,0,0)"/>
<path style="fill:none;stroke-width:0.034538;stroke-linecap:round;stroke-linejoin:miter;stroke:#5181b8;stroke-opacity:0.0156863;stroke-dasharray:0.00742624,2.992508;stroke-dashoffset:1.50368;stroke-miterlimit:4;" d="M 34.228906 18.539062 L 31.642187 20.053906 " transform="matrix(0.714286,0,0,0.714286,0,0)"/>
<path style="fill:none;stroke-width:0.034538;stroke-linecap:round;stroke-linejoin:miter;stroke:#5181b8;stroke-opacity:0.0156863;stroke-dasharray:0.00742624,2.992508;stroke-dashoffset:1.50368;stroke-miterlimit:4;" d="M 34.179688 9.542969 L 31.576562 8.055469 " transform="matrix(0.714286,0,0,0.714286,0,0)"/>
<path style="fill:none;stroke-width:0.034538;stroke-linecap:round;stroke-linejoin:miter;stroke:#5181b8;stroke-opacity:0.0156863;stroke-dasharray:0.00742641,2.992574;stroke-dashoffset:1.503713;stroke-miterlimit:4;" d="M 41.934375 2.001562 L 41.950781 4.998437 " transform="matrix(0.714286,0,0,0.714286,0,0)"/>
<path style="fill:none;stroke-width:0.034538;stroke-linecap:round;stroke-linejoin:miter;stroke:#5181b8;stroke-opacity:0.0156863;stroke-dasharray:0.00742624,2.992508;stroke-dashoffset:1.50368;stroke-miterlimit:4;" d="M 52.357812 7.946094 L 49.771094 9.460938 " transform="matrix(0.714286,0,0,0.714286,0,0)"/>
<path style="fill:none;stroke-width:0.034538;stroke-linecap:round;stroke-linejoin:miter;stroke:#5181b8;stroke-opacity:0.0156863;stroke-dasharray:0.00742624,2.992508;stroke-dashoffset:1.50368;stroke-miterlimit:4;" d="M 52.423437 19.944531 L 49.820312 18.457031 " transform="matrix(0.714286,0,0,0.714286,0,0)"/>
<path style="fill:none;stroke-width:2;stroke-linecap:butt;stroke-linejoin:round;stroke:#5181b8;stroke-opacity:1;stroke-miterlimit:4;" d="M 67.183594 3.658594 C 62.86875 5.228125 60.467969 9.253125 60.560937 13.480469 C 60.692187 19.085938 65.340625 23.532031 70.951562 23.400781 C 75.173437 23.307812 79.089062 20.721094 80.461719 16.340625 C 78.689844 16.969531 76.923437 17.133594 75.157031 16.832812 C 72.515625 16.384375 70.847656 15.1375 69.841406 14.169531 C 68.829687 13.196094 67.55 11.675781 66.942969 9.078125 C 66.538281 7.344531 66.620312 5.539844 67.183594 3.658594 Z M 67.183594 3.658594 " transform="matrix(0.714286,0,0,0.714286,0,0)"/>
<path style="fill:none;stroke-width:0.170211;stroke-linecap:round;stroke-linejoin:miter;stroke:#5181b8;stroke-opacity:0.0862745;stroke-dasharray:0.0319223,2.968078;stroke-dashoffset:1.515961;stroke-miterlimit:4;" d="M 70.207812 22.996094 L 70.273438 25.998437 " transform="matrix(0.714286,0,0,0.714286,0,0)"/>
<path style="fill:none;stroke-width:0.170211;stroke-linecap:round;stroke-linejoin:miter;stroke:#5181b8;stroke-opacity:0.0862745;stroke-dasharray:0.0319216,2.968012;stroke-dashoffset:1.515928;stroke-miterlimit:4;" d="M 62.310937 18.675781 L 59.746094 20.234375 " transform="matrix(0.714286,0,0,0.714286,0,0)"/>
<path style="fill:none;stroke-width:0.170211;stroke-linecap:round;stroke-linejoin:miter;stroke:#5181b8;stroke-opacity:0.0862745;stroke-dasharray:0.0319216,2.968012;stroke-dashoffset:1.515928;stroke-miterlimit:4;" d="M 62.103125 9.679688 L 59.472656 8.241406 " transform="matrix(0.714286,0,0,0.714286,0,0)"/>
<path style="fill:none;stroke-width:0.170211;stroke-linecap:round;stroke-linejoin:miter;stroke:#5181b8;stroke-opacity:0.0862745;stroke-dasharray:0.0319223,2.968078;stroke-dashoffset:1.515961;stroke-miterlimit:4;" d="M 69.726562 2.001562 L 69.792187 5.003906 " transform="matrix(0.714286,0,0,0.714286,0,0)"/>
<path style="fill:none;stroke-width:0.170211;stroke-linecap:round;stroke-linejoin:miter;stroke:#5181b8;stroke-opacity:0.0862745;stroke-dasharray:0.0319216,2.968012;stroke-dashoffset:1.515928;stroke-miterlimit:4;" d="M 80.253906 7.765625 L 77.689062 9.324219 " transform="matrix(0.714286,0,0,0.714286,0,0)"/>
<path style="fill:none;stroke-width:0.170211;stroke-linecap:round;stroke-linejoin:miter;stroke:#5181b8;stroke-opacity:0.0862745;stroke-dasharray:0.0319216,2.968012;stroke-dashoffset:1.515928;stroke-miterlimit:4;" d="M 80.527344 19.758594 L 77.896875 18.320312 " transform="matrix(0.714286,0,0,0.714286,0,0)"/>
<path style="fill:none;stroke-width:2;stroke-linecap:butt;stroke-linejoin:round;stroke:#5181b8;stroke-opacity:1;stroke-miterlimit:4;" d="M 94.921094 3.89375 C 90.704687 5.561719 88.435156 9.619531 88.664844 13.797656 C 88.976562 19.326562 93.707031 23.559375 99.235937 23.253125 C 103.414062 23.017969 107.192969 20.316406 108.385156 15.935937 C 106.684375 16.592187 104.961719 16.789062 103.228125 16.532031 C 100.630469 16.165625 98.9625 14.995312 97.934375 14.071094 C 96.911719 13.146875 95.599219 11.703125 94.915625 9.1875 C 94.450781 7.503125 94.450781 5.742188 94.921094 3.89375 Z M 94.921094 3.89375 " transform="matrix(0.714286,0,0,0.714286,0,0)"/>
<path style="fill:none;stroke-width:0.473175;stroke-linecap:round;stroke-linejoin:miter;stroke:#5181b8;stroke-opacity:0.235294;stroke-dasharray:0.077589,2.922411;stroke-dashoffset:1.538795;stroke-miterlimit:4;" d="M 98.497656 22.985156 L 98.667187 25.982031 " transform="matrix(0.714286,0,0,0.714286,0,0)"/>
<path style="fill:none;stroke-width:0.473175;stroke-linecap:round;stroke-linejoin:miter;stroke:#5181b8;stroke-opacity:0.235294;stroke-dasharray:0.0775873,2.922347;stroke-dashoffset:1.538761;stroke-miterlimit:4;" d="M 90.469531 18.927344 L 87.959375 20.567969 " transform="matrix(0.714286,0,0,0.714286,0,0)"/>
<path style="fill:none;stroke-width:0.473175;stroke-linecap:round;stroke-linejoin:miter;stroke:#5181b8;stroke-opacity:0.235294;stroke-dasharray:0.0775873,2.922347;stroke-dashoffset:1.538761;stroke-miterlimit:4;" d="M 89.966406 9.936719 L 87.292187 8.585938 " transform="matrix(0.714286,0,0,0.714286,0,0)"/>
<path style="fill:none;stroke-width:0.473175;stroke-linecap:round;stroke-linejoin:miter;stroke:#5181b8;stroke-opacity:0.235294;stroke-dasharray:0.077589,2.922411;stroke-dashoffset:1.538795;stroke-miterlimit:4;" d="M 97.332812 2.017969 L 97.502344 5.014844 " transform="matrix(0.714286,0,0,0.714286,0,0)"/>
<path style="fill:none;stroke-width:0.473175;stroke-linecap:round;stroke-linejoin:miter;stroke:#5181b8;stroke-opacity:0.235294;stroke-dasharray:0.0775873,2.922347;stroke-dashoffset:1.538761;stroke-miterlimit:4;" d="M 108.040625 7.432031 L 105.530469 9.072656 " transform="matrix(0.714286,0,0,0.714286,0,0)"/>
<path style="fill:none;stroke-width:0.473175;stroke-linecap:round;stroke-linejoin:miter;stroke:#5181b8;stroke-opacity:0.235294;stroke-dasharray:0.0775873,2.922347;stroke-dashoffset:1.538761;stroke-miterlimit:4;" d="M 108.707812 19.414062 L 106.033594 18.063281 " transform="matrix(0.714286,0,0,0.714286,0,0)"/>
<path style="fill:none;stroke-width:2;stroke-linecap:butt;stroke-linejoin:round;stroke:#5181b8;stroke-opacity:1;stroke-miterlimit:4;" d="M 122.538281 4.2875 C 118.475 6.097656 116.41875 10.19375 116.861719 14.295312 C 117.441406 19.676562 122.275781 23.570312 127.657031 22.990625 C 131.758594 22.547656 135.31875 19.676562 136.232031 15.3125 C 134.635156 15.990625 132.994531 16.23125 131.304688 16.050781 C 128.794531 15.804687 127.126562 14.74375 126.082031 13.901562 C 125.0375 13.053906 123.692187 11.725 122.888281 9.346094 C 122.330469 7.754687 122.210156 6.070312 122.538281 4.2875 Z M 122.538281 4.2875 " transform="matrix(0.714286,0,0,0.714286,0,0)"/>
<path style="fill:none;stroke-width:0.914503;stroke-linecap:round;stroke-linejoin:miter;stroke:#5181b8;stroke-opacity:0.458824;stroke-dasharray:0.149792,2.850208;stroke-dashoffset:1.574896;stroke-miterlimit:4;" d="M 126.9625 22.946875 L 127.285156 25.932812 " transform="matrix(0.714286,0,0,0.714286,0,0)"/>
<path style="fill:none;stroke-width:0.914503;stroke-linecap:round;stroke-linejoin:miter;stroke:#5181b8;stroke-opacity:0.458824;stroke-dasharray:0.149789,2.850145;stroke-dashoffset:1.574862;stroke-miterlimit:4;" d="M 118.732031 19.310156 L 116.309375 21.076562 " transform="matrix(0.714286,0,0,0.714286,0,0)"/>
<path style="fill:none;stroke-width:0.914503;stroke-linecap:round;stroke-linejoin:miter;stroke:#5181b8;stroke-opacity:0.458824;stroke-dasharray:0.149789,2.850145;stroke-dashoffset:1.574862;stroke-miterlimit:4;" d="M 117.769531 10.357812 L 115.024219 9.14375 " transform="matrix(0.714286,0,0,0.714286,0,0)"/>
<path style="fill:none;stroke-width:0.914503;stroke-linecap:round;stroke-linejoin:miter;stroke:#5181b8;stroke-opacity:0.458824;stroke-dasharray:0.149792,2.850208;stroke-dashoffset:1.574896;stroke-miterlimit:4;" d="M 124.714844 2.067187 L 125.0375 5.053125 " transform="matrix(0.714286,0,0,0.714286,0,0)"/>
<path style="fill:none;stroke-width:0.914503;stroke-linecap:round;stroke-linejoin:miter;stroke:#5181b8;stroke-opacity:0.458824;stroke-dasharray:0.149789,2.850145;stroke-dashoffset:1.574862;stroke-miterlimit:4;" d="M 135.690625 6.923437 L 133.267969 8.689844 " transform="matrix(0.714286,0,0,0.714286,0,0)"/>
<path style="fill:none;stroke-width:0.914503;stroke-linecap:round;stroke-linejoin:miter;stroke:#5181b8;stroke-opacity:0.458824;stroke-dasharray:0.149789,2.850145;stroke-dashoffset:1.574862;stroke-miterlimit:4;" d="M 136.975781 18.85625 L 134.230469 17.642187 " transform="matrix(0.714286,0,0,0.714286,0,0)"/>
<path style="fill:none;stroke-width:2;stroke-linecap:butt;stroke-linejoin:round;stroke:#5181b8;stroke-opacity:1;stroke-miterlimit:4;" d="M 150.046094 4.889062 C 146.207031 6.890625 144.467969 11.014062 145.200781 14.973437 C 146.152344 20.119531 151.090625 23.515625 156.23125 22.569531 C 160.196094 21.836719 163.422656 18.735937 163.925781 14.4375 C 162.482031 15.126562 160.95625 15.421875 159.353906 15.334375 C 156.980469 15.246875 155.328906 14.35 154.2625 13.617188 C 153.201562 12.878906 151.817969 11.725 150.866406 9.564844 C 150.188281 8.115625 149.914844 6.557031 150.046094 4.889062 Z M 150.046094 4.889062 " transform="matrix(0.714286,0,0,0.714286,0,0)"/>
<path style="fill:none;stroke-width:1.292492;stroke-linecap:round;stroke-linejoin:miter;stroke:#5181b8;stroke-opacity:0.647059;stroke-dasharray:0.255316,2.744684;stroke-dashoffset:1.627658;stroke-miterlimit:4;" d="M 155.635156 22.848437 L 156.182031 25.801562 " transform="matrix(0.714286,0,0,0.714286,0,0)"/>
<path style="fill:none;stroke-width:1.292492;stroke-linecap:round;stroke-linejoin:miter;stroke:#5181b8;stroke-opacity:0.647059;stroke-dasharray:0.255311,2.744623;stroke-dashoffset:1.627622;stroke-miterlimit:4;" d="M 147.153125 19.840625 L 144.872656 21.7875 " transform="matrix(0.714286,0,0,0.714286,0,0)"/>
<path style="fill:none;stroke-width:1.292492;stroke-linecap:round;stroke-linejoin:miter;stroke:#5181b8;stroke-opacity:0.647059;stroke-dasharray:0.255311,2.744623;stroke-dashoffset:1.627622;stroke-miterlimit:4;" d="M 145.517969 10.992188 L 142.690625 9.985937 " transform="matrix(0.714286,0,0,0.714286,0,0)"/>
<path style="fill:none;stroke-width:1.292492;stroke-linecap:round;stroke-linejoin:miter;stroke:#5181b8;stroke-opacity:0.647059;stroke-dasharray:0.255316,2.744684;stroke-dashoffset:1.627658;stroke-miterlimit:4;" d="M 151.817969 2.198437 L 152.364844 5.151562 " transform="matrix(0.714286,0,0,0.714286,0,0)"/>
<path style="fill:none;stroke-width:1.292492;stroke-linecap:round;stroke-linejoin:miter;stroke:#5181b8;stroke-opacity:0.647059;stroke-dasharray:0.255311,2.744623;stroke-dashoffset:1.627622;stroke-miterlimit:4;" d="M 163.127344 6.2125 L 160.846875 8.159375 " transform="matrix(0.714286,0,0,0.714286,0,0)"/>
<path style="fill:none;stroke-width:1.292492;stroke-linecap:round;stroke-linejoin:miter;stroke:#5181b8;stroke-opacity:0.647059;stroke-dasharray:0.255311,2.744623;stroke-dashoffset:1.627622;stroke-miterlimit:4;" d="M 165.309375 18.014062 L 162.482031 17.007812 " transform="matrix(0.714286,0,0,0.714286,0,0)"/>
<path style="fill:none;stroke-width:2;stroke-linecap:butt;stroke-linejoin:round;stroke:#5181b8;stroke-opacity:1;stroke-miterlimit:4;" d="M 177.471875 5.747656 C 173.966406 7.978906 172.642969 12.107812 173.747656 15.842969 C 175.158594 20.611719 180.173437 23.335156 184.942187 21.924219 C 188.677344 20.819531 191.422656 17.467187 191.389844 13.310937 C 190.148438 13.989062 188.775781 14.333594 187.29375 14.35 C 185.128125 14.448437 183.520312 13.764844 182.448437 13.179688 C 181.371094 12.594531 179.971094 11.670312 178.855469 9.827344 C 178.051562 8.585938 177.586719 7.229687 177.471875 5.747656 Z M 177.471875 5.747656 " transform="matrix(0.714286,0,0,0.714286,0,0)"/>
<path style="fill:none;stroke-width:1.551123;stroke-linecap:round;stroke-linejoin:miter;stroke:#5181b8;stroke-opacity:0.776471;stroke-dasharray:0.40184,2.59816;stroke-dashoffset:1.70092;stroke-miterlimit:4;" d="M 184.553906 22.629687 L 185.401562 25.50625 " transform="matrix(0.714286,0,0,0.714286,0,0)"/>
<path style="fill:none;stroke-width:1.551123;stroke-linecap:round;stroke-linejoin:miter;stroke:#5181b8;stroke-opacity:0.776471;stroke-dasharray:0.401831,2.598103;stroke-dashoffset:1.700883;stroke-miterlimit:4;" d="M 175.803906 20.524219 L 173.736719 22.700781 " transform="matrix(0.714286,0,0,0.714286,0,0)"/>
<path style="fill:none;stroke-width:1.551123;stroke-linecap:round;stroke-linejoin:miter;stroke:#5181b8;stroke-opacity:0.776471;stroke-dasharray:0.401831,2.598103;stroke-dashoffset:1.700883;stroke-miterlimit:4;" d="M 173.25 11.894531 L 170.335156 11.194531 " transform="matrix(0.714286,0,0,0.714286,0,0)"/>
<path style="fill:none;stroke-width:1.551123;stroke-linecap:round;stroke-linejoin:miter;stroke:#5181b8;stroke-opacity:0.776471;stroke-dasharray:0.40184,2.59816;stroke-dashoffset:1.70092;stroke-miterlimit:4;" d="M 178.598437 2.49375 L 179.446094 5.370312 " transform="matrix(0.714286,0,0,0.714286,0,0)"/>
<path style="fill:none;stroke-width:1.551123;stroke-linecap:round;stroke-linejoin:miter;stroke:#5181b8;stroke-opacity:0.776471;stroke-dasharray:0.401831,2.598103;stroke-dashoffset:1.700883;stroke-miterlimit:4;" d="M 190.263281 5.299219 L 188.196094 7.475781 " transform="matrix(0.714286,0,0,0.714286,0,0)"/>
<path style="fill:none;stroke-width:1.551123;stroke-linecap:round;stroke-linejoin:miter;stroke:#5181b8;stroke-opacity:0.776471;stroke-dasharray:0.401831,2.598103;stroke-dashoffset:1.700883;stroke-miterlimit:4;" d="M 193.664844 16.805469 L 190.75 16.105469 " transform="matrix(0.714286,0,0,0.714286,0,0)"/>
<path style="fill:none;stroke-width:2;stroke-linecap:butt;stroke-linejoin:round;stroke:#5181b8;stroke-opacity:1;stroke-miterlimit:4;" d="M 204.875781 6.874219 C 201.807812 9.346094 201.014844 13.436719 202.557031 16.838281 C 204.482031 21.082031 209.485937 22.963281 213.735156 21.038281 C 217.136719 19.490625 219.23125 15.892187 218.547656 12.009375 C 217.525 12.638281 216.34375 13.015625 215.009375 13.141406 C 213.117188 13.420312 211.596875 12.988281 210.530469 12.589062 C 209.469531 12.184375 208.080469 11.55 206.828125 10.117188 C 205.898438 9.160156 205.242188 8.077344 204.875781 6.874219 Z M 204.875781 6.874219 " transform="matrix(0.714286,0,0,0.714286,0,0)"/>
<path style="fill:none;stroke-width:1.724702;stroke-linecap:round;stroke-linejoin:miter;stroke:#5181b8;stroke-opacity:0.862745;stroke-dasharray:0.595386,2.404614;stroke-dashoffset:1.797693;stroke-miterlimit:4;" d="M 213.71875 22.197656 L 214.960156 24.926562 " transform="matrix(0.714286,0,0,0.714286,0,0)"/>
<path style="fill:none;stroke-width:1.724702;stroke-linecap:round;stroke-linejoin:miter;stroke:#5181b8;stroke-opacity:0.862745;stroke-dasharray:0.595373,2.404561;stroke-dashoffset:1.797654;stroke-miterlimit:4;" d="M 204.760937 21.317187 L 203.016406 23.75625 " transform="matrix(0.714286,0,0,0.714286,0,0)"/>
<path style="fill:none;stroke-width:1.724702;stroke-linecap:round;stroke-linejoin:miter;stroke:#5181b8;stroke-opacity:0.862745;stroke-dasharray:0.595373,2.404561;stroke-dashoffset:1.797654;stroke-miterlimit:4;" d="M 201.042187 13.125 L 198.05625 12.829687 " transform="matrix(0.714286,0,0,0.714286,0,0)"/>
<path style="fill:none;stroke-width:1.724702;stroke-linecap:round;stroke-linejoin:miter;stroke:#5181b8;stroke-opacity:0.862745;stroke-dasharray:0.595386,2.404614;stroke-dashoffset:1.797693;stroke-miterlimit:4;" d="M 205.039844 3.073437 L 206.28125 5.802344 " transform="matrix(0.714286,0,0,0.714286,0,0)"/>
<path style="fill:none;stroke-width:1.724702;stroke-linecap:round;stroke-linejoin:miter;stroke:#5181b8;stroke-opacity:0.862745;stroke-dasharray:0.595373,2.404561;stroke-dashoffset:1.797654;stroke-miterlimit:4;" d="M 216.983594 4.24375 L 215.239062 6.682812 " transform="matrix(0.714286,0,0,0.714286,0,0)"/>
<path style="fill:none;stroke-width:1.724702;stroke-linecap:round;stroke-linejoin:miter;stroke:#5181b8;stroke-opacity:0.862745;stroke-dasharray:0.595373,2.404561;stroke-dashoffset:1.797654;stroke-miterlimit:4;" d="M 221.94375 15.170312 L 218.957812 14.875 " transform="matrix(0.714286,0,0,0.714286,0,0)"/>
<path style="fill:none;stroke-width:2;stroke-linecap:butt;stroke-linejoin:round;stroke:#5181b8;stroke-opacity:1;stroke-miterlimit:4;" d="M 232.334375 8.197656 C 229.780469 10.915625 229.610937 14.896875 231.617969 17.844531 C 234.051562 21.432031 238.935156 22.361719 242.517187 19.928125 C 245.470312 17.921094 246.777344 14.158594 245.404687 10.691406 C 244.589844 11.24375 243.589062 11.632031 242.424219 11.861719 C 240.827344 12.304688 239.421875 12.124219 238.39375 11.927344 C 237.371094 11.730469 236.042187 11.407812 234.713281 10.428906 C 233.701562 9.8 232.903125 9.05625 232.334375 8.197656 Z M 232.334375 8.197656 " transform="matrix(0.714286,0,0,0.714286,0,0)"/>
<path style="fill:none;stroke-width:1.841552;stroke-linecap:round;stroke-linejoin:miter;stroke:#5181b8;stroke-opacity:0.921569;stroke-dasharray:0.834161,2.165839;stroke-dashoffset:1.91708;stroke-miterlimit:4;" d="M 243.058594 21.442969 L 244.742969 23.925781 " transform="matrix(0.714286,0,0,0.714286,0,0)"/>
<path style="fill:none;stroke-width:1.841552;stroke-linecap:round;stroke-linejoin:miter;stroke:#5181b8;stroke-opacity:0.921569;stroke-dasharray:0.834142,2.165792;stroke-dashoffset:1.917038;stroke-miterlimit:4;" d="M 234.084375 22.104687 L 232.777344 24.80625 " transform="matrix(0.714286,0,0,0.714286,0,0)"/>
<path style="fill:none;stroke-width:1.841552;stroke-linecap:round;stroke-linejoin:miter;stroke:#5181b8;stroke-opacity:0.921569;stroke-dasharray:0.834142,2.165792;stroke-dashoffset:1.917038;stroke-miterlimit:4;" d="M 229.025781 14.661719 L 226.034375 14.880469 " transform="matrix(0.714286,0,0,0.714286,0,0)"/>
<path style="fill:none;stroke-width:1.841552;stroke-linecap:round;stroke-linejoin:miter;stroke:#5181b8;stroke-opacity:0.921569;stroke-dasharray:0.834161,2.165839;stroke-dashoffset:1.91708;stroke-miterlimit:4;" d="M 231.257031 4.074219 L 232.941406 6.557031 " transform="matrix(0.714286,0,0,0.714286,0,0)"/>
<path style="fill:none;stroke-width:1.841552;stroke-linecap:round;stroke-linejoin:miter;stroke:#5181b8;stroke-opacity:0.921569;stroke-dasharray:0.834142,2.165792;stroke-dashoffset:1.917038;stroke-miterlimit:4;" d="M 243.222656 3.19375 L 241.915625 5.895312 " transform="matrix(0.714286,0,0,0.714286,0,0)"/>
<path style="fill:none;stroke-width:1.841552;stroke-linecap:round;stroke-linejoin:miter;stroke:#5181b8;stroke-opacity:0.921569;stroke-dasharray:0.834142,2.165792;stroke-dashoffset:1.917038;stroke-miterlimit:4;" d="M 249.965625 13.119531 L 246.974219 13.338281 " transform="matrix(0.714286,0,0,0.714286,0,0)"/>
<path style="fill:none;stroke-width:2;stroke-linecap:butt;stroke-linejoin:round;stroke:#5181b8;stroke-opacity:1;stroke-miterlimit:4;" d="M 259.924219 9.586719 C 257.944531 12.517969 258.420312 16.307813 260.842969 18.719531 C 263.708594 21.563281 268.335156 21.552344 271.184375 18.686719 C 273.590625 16.264062 274.05 12.46875 272.048437 9.548437 C 271.392187 10.01875 270.544531 10.4125 269.527344 10.729687 C 268.214844 11.2875 266.957031 11.342187 265.989062 11.342187 C 265.026563 11.347656 263.807031 11.314844 262.489062 10.784375 C 261.471875 10.489062 260.607812 10.089844 259.924219 9.586719 Z M 259.924219 9.586719 " transform="matrix(0.714286,0,0,0.714286,0,0)"/>
<path style="fill:none;stroke-width:1.918735;stroke-linecap:round;stroke-linejoin:miter;stroke:#5181b8;stroke-opacity:0.960784;stroke-dasharray:1.101887,1.898113;stroke-dashoffset:2.050944;stroke-miterlimit:4;" d="M 272.382031 20.34375 L 274.509375 22.460156 " transform="matrix(0.714286,0,0,0.714286,0,0)"/>
<path style="fill:none;stroke-width:1.918735;stroke-linecap:round;stroke-linejoin:miter;stroke:#5181b8;stroke-opacity:0.960784;stroke-dasharray:1.101863,1.898071;stroke-dashoffset:2.050898;stroke-miterlimit:4;" d="M 263.697656 22.700781 L 262.932031 25.599219 " transform="matrix(0.714286,0,0,0.714286,0,0)"/>
<path style="fill:none;stroke-width:1.918735;stroke-linecap:round;stroke-linejoin:miter;stroke:#5181b8;stroke-opacity:0.960784;stroke-dasharray:1.101863,1.898071;stroke-dashoffset:2.050898;stroke-miterlimit:4;" d="M 257.315625 16.357031 L 254.417187 17.139062 " transform="matrix(0.714286,0,0,0.714286,0,0)"/>
<path style="fill:none;stroke-width:1.918735;stroke-linecap:round;stroke-linejoin:miter;stroke:#5181b8;stroke-opacity:0.960784;stroke-dasharray:1.101887,1.898113;stroke-dashoffset:2.050944;stroke-miterlimit:4;" d="M 257.490625 5.539844 L 259.617969 7.65625 " transform="matrix(0.714286,0,0,0.714286,0,0)"/>
<path style="fill:none;stroke-width:1.918735;stroke-linecap:round;stroke-linejoin:miter;stroke:#5181b8;stroke-opacity:0.960784;stroke-dasharray:1.101863,1.898071;stroke-dashoffset:2.050898;stroke-miterlimit:4;" d="M 269.067969 2.400781 L 268.302344 5.299219 " transform="matrix(0.714286,0,0,0.714286,0,0)"/>
<path style="fill:none;stroke-width:1.918735;stroke-linecap:round;stroke-linejoin:miter;stroke:#5181b8;stroke-opacity:0.960784;stroke-dasharray:1.101863,1.898071;stroke-dashoffset:2.050898;stroke-miterlimit:4;" d="M 277.582812 10.860937 L 274.684375 11.642969 " transform="matrix(0.714286,0,0,0.714286,0,0)"/>
<path style="fill:none;stroke-width:2;stroke-linecap:butt;stroke-linejoin:round;stroke:#5181b8;stroke-opacity:1;stroke-miterlimit:4;" d="M 287.710938 10.910156 C 286.3 13.978125 287.382812 17.505469 290.117188 19.332031 C 293.267187 21.4375 297.521875 20.589844 299.627344 17.445312 C 301.453906 14.710937 301.109375 11.035937 298.632031 8.739062 C 298.06875 9.138281 297.325 9.526562 296.444531 9.909375 C 295.372656 10.532812 294.267969 10.767969 293.392969 10.942969 C 292.517969 11.117969 291.435156 11.325781 290.210156 11.172656 C 289.247656 11.167187 288.405469 11.085156 287.710938 10.910156 Z M 287.710938 10.910156 " transform="matrix(0.714286,0,0,0.714286,0,0)"/>
<path style="fill:none;stroke-width:1.966717;stroke-linecap:round;stroke-linejoin:miter;stroke:#5181b8;stroke-opacity:0.984314;stroke-dasharray:1.371755,1.628245;stroke-dashoffset:2.185878;stroke-miterlimit:4;" d="M 301.48125 19.003906 L 303.975 20.666406 " transform="matrix(0.714286,0,0,0.714286,0,0)"/>
<path style="fill:none;stroke-width:1.966717;stroke-linecap:round;stroke-linejoin:miter;stroke:#5181b8;stroke-opacity:0.984314;stroke-dasharray:1.371725,1.628209;stroke-dashoffset:2.18583;stroke-miterlimit:4;" d="M 293.409375 22.979687 L 293.2125 25.976562 " transform="matrix(0.714286,0,0,0.714286,0,0)"/>
<path style="fill:none;stroke-width:1.966717;stroke-linecap:round;stroke-linejoin:miter;stroke:#5181b8;stroke-opacity:0.984314;stroke-dasharray:1.371725,1.628209;stroke-dashoffset:2.18583;stroke-miterlimit:4;" d="M 285.928125 17.98125 L 283.2375 19.304688 " transform="matrix(0.714286,0,0,0.714286,0,0)"/>
<path style="fill:none;stroke-width:1.966717;stroke-linecap:round;stroke-linejoin:miter;stroke:#5181b8;stroke-opacity:0.984314;stroke-dasharray:1.371755,1.628245;stroke-dashoffset:2.185878;stroke-miterlimit:4;" d="M 284.025 7.333594 L 286.51875 8.996094 " transform="matrix(0.714286,0,0,0.714286,0,0)"/>
<path style="fill:none;stroke-width:1.966717;stroke-linecap:round;stroke-linejoin:miter;stroke:#5181b8;stroke-opacity:0.984314;stroke-dasharray:1.371725,1.628209;stroke-dashoffset:2.18583;stroke-miterlimit:4;" d="M 294.7875 2.023438 L 294.590625 5.020312 " transform="matrix(0.714286,0,0,0.714286,0,0)"/>
<path style="fill:none;stroke-width:1.966717;stroke-linecap:round;stroke-linejoin:miter;stroke:#5181b8;stroke-opacity:0.984314;stroke-dasharray:1.371725,1.628209;stroke-dashoffset:2.18583;stroke-miterlimit:4;" d="M 304.7625 8.695312 L 302.071875 10.01875 " transform="matrix(0.714286,0,0,0.714286,0,0)"/>
<path style="fill:none;stroke-width:2;stroke-linecap:butt;stroke-linejoin:round;stroke:#5181b8;stroke-opacity:1;stroke-miterlimit:4;" d="M 315.694531 12.064062 C 314.797656 15.18125 316.383594 18.396875 319.303906 19.665625 C 322.585156 21.092969 326.407812 19.594531 327.835156 16.307813 C 329.103906 13.392969 328.075781 9.958594 325.297656 8.285156 C 324.772656 8.61875 324.110937 9.001562 323.334375 9.433594 C 322.453906 10.073437 321.496875 10.439844 320.720312 10.746094 C 319.94375 11.052344 319.014062 11.435156 317.942187 11.571875 C 317.083594 11.801562 316.323437 11.965625 315.694531 12.064062 Z M 315.694531 12.064062 " transform="matrix(0.714286,0,0,0.714286,0,0)"/>
<path style="fill:none;stroke-width:1.992268;stroke-linecap:round;stroke-linejoin:miter;stroke:#5181b8;stroke-opacity:0.996078;stroke-dasharray:1.621366,1.378634;stroke-dashoffset:2.310683;stroke-miterlimit:4;" d="M 330.252344 17.592969 L 333.003125 18.790625 " transform="matrix(0.714286,0,0,0.714286,0,0)"/>
<path style="fill:none;stroke-width:1.992268;stroke-linecap:round;stroke-linejoin:miter;stroke:#5181b8;stroke-opacity:0.996078;stroke-dasharray:1.621331,1.378603;stroke-dashoffset:2.310632;stroke-miterlimit:4;" d="M 323.017187 22.941406 L 323.35625 25.921875 " transform="matrix(0.714286,0,0,0.714286,0,0)"/>
<path style="fill:none;stroke-width:1.992268;stroke-linecap:round;stroke-linejoin:miter;stroke:#5181b8;stroke-opacity:0.996078;stroke-dasharray:1.621331,1.378603;stroke-dashoffset:2.310632;stroke-miterlimit:4;" d="M 314.764844 19.348437 L 312.353125 21.13125 " transform="matrix(0.714286,0,0,0.714286,0,0)"/>
<path style="fill:none;stroke-width:1.992268;stroke-linecap:round;stroke-linejoin:miter;stroke:#5181b8;stroke-opacity:0.996078;stroke-dasharray:1.621366,1.378634;stroke-dashoffset:2.310683;stroke-miterlimit:4;" d="M 310.996875 9.209375 L 313.747656 10.407031 " transform="matrix(0.714286,0,0,0.714286,0,0)"/>
<path style="fill:none;stroke-width:1.992268;stroke-linecap:round;stroke-linejoin:miter;stroke:#5181b8;stroke-opacity:0.996078;stroke-dasharray:1.621331,1.378603;stroke-dashoffset:2.310632;stroke-miterlimit:4;" d="M 320.64375 2.078125 L 320.982812 5.058594 " transform="matrix(0.714286,0,0,0.714286,0,0)"/>
<path style="fill:none;stroke-width:1.992268;stroke-linecap:round;stroke-linejoin:miter;stroke:#5181b8;stroke-opacity:0.996078;stroke-dasharray:1.621331,1.378603;stroke-dashoffset:2.310632;stroke-miterlimit:4;" d="M 331.646875 6.86875 L 329.235156 8.651562 " transform="matrix(0.714286,0,0,0.714286,0,0)"/>
<path style="fill:none;stroke-width:2;stroke-linecap:butt;stroke-linejoin:round;stroke:#5181b8;stroke-opacity:1;stroke-miterlimit:4;" d="M 343.814844 13.004687 C 343.360937 16.116406 345.335156 18.998437 348.332031 19.775 C 351.635156 20.633594 355.003906 18.648438 355.8625 15.345312 C 356.639062 12.348437 355.075 9.220312 352.132812 8.115625 C 351.61875 8.4 351.000781 8.782812 350.30625 9.236719 C 349.573437 9.871094 348.753125 10.319531 348.069531 10.71875 C 347.391406 11.117969 346.614844 11.621094 345.707031 11.960156 C 344.974219 12.353906 344.334375 12.703906 343.814844 13.004687 Z M 343.814844 13.004687 " transform="matrix(0.714286,0,0,0.714286,0,0)"/>
<path style="fill:none;stroke-width:2;stroke-linecap:round;stroke-linejoin:miter;stroke:#5181b8;stroke-opacity:1;stroke-dasharray:1.840784,1.159216;stroke-dashoffset:2.420392;stroke-miterlimit:4;" d="M 358.711719 16.258594 L 361.615625 17.007812 " transform="matrix(0.714286,0,0,0.714286,0,0)"/>
<path style="fill:none;stroke-width:2;stroke-linecap:round;stroke-linejoin:miter;stroke:#5181b8;stroke-opacity:1;stroke-dasharray:1.840744,1.15919;stroke-dashoffset:2.420339;stroke-miterlimit:4;" d="M 352.400781 22.673437 L 353.199219 25.566406 " transform="matrix(0.714286,0,0,0.714286,0,0)"/>
<path style="fill:none;stroke-width:2;stroke-linecap:round;stroke-linejoin:miter;stroke:#5181b8;stroke-opacity:1;stroke-dasharray:1.840744,1.15919;stroke-dashoffset:2.420339;stroke-miterlimit:4;" d="M 343.689062 20.414844 L 341.583594 22.553125 " transform="matrix(0.714286,0,0,0.714286,0,0)"/>
<path style="fill:none;stroke-width:2;stroke-linecap:round;stroke-linejoin:miter;stroke:#5181b8;stroke-opacity:1;stroke-dasharray:1.840784,1.159216;stroke-dashoffset:2.420392;stroke-miterlimit:4;" d="M 338.384375 10.992188 L 341.288281 11.741406 " transform="matrix(0.714286,0,0,0.714286,0,0)"/>
<path style="fill:none;stroke-width:2;stroke-linecap:round;stroke-linejoin:miter;stroke:#5181b8;stroke-opacity:1;stroke-dasharray:1.840744,1.15919;stroke-dashoffset:2.420339;stroke-miterlimit:4;" d="M 346.800781 2.433594 L 347.599219 5.326562 " transform="matrix(0.714286,0,0,0.714286,0,0)"/>
<path style="fill:none;stroke-width:2;stroke-linecap:round;stroke-linejoin:miter;stroke:#5181b8;stroke-opacity:1;stroke-dasharray:1.840744,1.15919;stroke-dashoffset:2.420339;stroke-miterlimit:4;" d="M 358.416406 5.446875 L 356.310937 7.585156 " transform="matrix(0.714286,0,0,0.714286,0,0)"/>
<path style="fill:none;stroke-width:2;stroke-linecap:butt;stroke-linejoin:round;stroke:#5181b8;stroke-opacity:1;stroke-miterlimit:4;" d="M 372.017187 13.753906 C 371.91875 16.810937 374.177344 19.38125 377.179688 19.736719 C 380.433594 20.125 383.38125 17.80625 383.769531 14.552344 C 384.130469 11.55 382.161719 8.75 379.170312 8.126563 C 378.645312 8.383594 378.054688 8.760937 377.420312 9.236719 C 376.791406 9.84375 376.080469 10.346875 375.489844 10.811719 C 374.899219 11.276562 374.259375 11.845312 373.521094 12.315625 C 372.919531 12.824219 372.405469 13.310937 372.017187 13.753906 Z M 372.017187 13.753906 " transform="matrix(0.714286,0,0,0.714286,0,0)"/>
<path style="fill:none;stroke-width:2;stroke-linecap:round;stroke-linejoin:miter;stroke:#5181b8;stroke-opacity:1;stroke-dasharray:2.029259,0.970741;stroke-dashoffset:2.51463;stroke-miterlimit:4;" d="M 386.935937 15.066406 L 389.916406 15.421875 " transform="matrix(0.714286,0,0,0.714286,0,0)"/>
<path style="fill:none;stroke-width:2;stroke-linecap:round;stroke-linejoin:miter;stroke:#5181b8;stroke-opacity:1;stroke-dasharray:2.029215,0.970719;stroke-dashoffset:2.514574;stroke-miterlimit:4;" d="M 381.54375 22.274219 L 382.725 25.030469 " transform="matrix(0.714286,0,0,0.714286,0,0)"/>
<path style="fill:none;stroke-width:2;stroke-linecap:round;stroke-linejoin:miter;stroke:#5181b8;stroke-opacity:1;stroke-dasharray:2.029215,0.970719;stroke-dashoffset:2.514574;stroke-miterlimit:4;" d="M 372.607812 21.207812 L 370.814062 23.608594 " transform="matrix(0.714286,0,0,0.714286,0,0)"/>
<path style="fill:none;stroke-width:2;stroke-linecap:round;stroke-linejoin:miter;stroke:#5181b8;stroke-opacity:1;stroke-dasharray:2.029259,0.970741;stroke-dashoffset:2.51463;stroke-miterlimit:4;" d="M 366.083594 12.578125 L 369.064062 12.933594 " transform="matrix(0.714286,0,0,0.714286,0,0)"/>
<path style="fill:none;stroke-width:2;stroke-linecap:round;stroke-linejoin:miter;stroke:#5181b8;stroke-opacity:1;stroke-dasharray:2.029215,0.970719;stroke-dashoffset:2.514574;stroke-miterlimit:4;" d="M 373.275 2.969531 L 374.45625 5.725781 " transform="matrix(0.714286,0,0,0.714286,0,0)"/>
<path style="fill:none;stroke-width:2;stroke-linecap:round;stroke-linejoin:miter;stroke:#5181b8;stroke-opacity:1;stroke-dasharray:2.029215,0.970719;stroke-dashoffset:2.514574;stroke-miterlimit:4;" d="M 385.185937 4.391406 L 383.392187 6.792187 " transform="matrix(0.714286,0,0,0.714286,0,0)"/>
<path style="fill:none;stroke-width:2;stroke-linecap:butt;stroke-linejoin:round;stroke:#5181b8;stroke-opacity:1;stroke-miterlimit:4;" d="M 400.241406 14.339062 C 400.438281 17.325 402.910156 19.605469 405.874219 19.616406 C 409.035156 19.632812 411.605469 17.078906 411.621875 13.917969 C 411.632812 10.953906 409.363281 8.460156 406.382812 8.246875 C 405.841406 8.492969 405.267187 8.870312 404.682031 9.351562 C 404.124219 9.936719 403.50625 10.467187 402.992188 10.970312 C 402.483594 11.478906 401.958594 12.085938 401.378906 12.64375 C 400.892187 13.228906 400.503906 13.803125 400.241406 14.339062 Z M 400.241406 14.339062 " transform="matrix(0.714286,0,0,0.714286,0,0)"/>
<path style="fill:none;stroke-width:2;stroke-linecap:round;stroke-linejoin:miter;stroke:#5181b8;stroke-opacity:1;stroke-dasharray:2.189902,0.810098;stroke-dashoffset:2.594951;stroke-miterlimit:4;" d="M 415.001562 14.032812 L 417.998437 14.04375 " transform="matrix(0.714286,0,0,0.714286,0,0)"/>
<path style="fill:none;stroke-width:2;stroke-linecap:round;stroke-linejoin:miter;stroke:#5181b8;stroke-opacity:1;stroke-dasharray:2.189854,0.81008;stroke-dashoffset:2.594894;stroke-miterlimit:4;" d="M 410.473437 21.809375 L 411.960938 24.4125 " transform="matrix(0.714286,0,0,0.714286,0,0)"/>
<path style="fill:none;stroke-width:2;stroke-linecap:round;stroke-linejoin:miter;stroke:#5181b8;stroke-opacity:1;stroke-dasharray:2.189854,0.81008;stroke-dashoffset:2.594894;stroke-miterlimit:4;" d="M 401.471875 21.776562 L 399.9625 24.36875 " transform="matrix(0.714286,0,0,0.714286,0,0)"/>
<path style="fill:none;stroke-width:2;stroke-linecap:round;stroke-linejoin:miter;stroke:#5181b8;stroke-opacity:1;stroke-dasharray:2.189902,0.810098;stroke-dashoffset:2.594951;stroke-miterlimit:4;" d="M 394.001562 13.95625 L 396.998437 13.967187 " transform="matrix(0.714286,0,0,0.714286,0,0)"/>
<path style="fill:none;stroke-width:2;stroke-linecap:round;stroke-linejoin:miter;stroke:#5181b8;stroke-opacity:1;stroke-dasharray:2.189854,0.81008;stroke-dashoffset:2.594894;stroke-miterlimit:4;" d="M 400.039062 3.5875 L 401.526562 6.190625 " transform="matrix(0.714286,0,0,0.714286,0,0)"/>
<path style="fill:none;stroke-width:2;stroke-linecap:round;stroke-linejoin:miter;stroke:#5181b8;stroke-opacity:1;stroke-dasharray:2.189854,0.81008;stroke-dashoffset:2.594894;stroke-miterlimit:4;" d="M 412.0375 3.63125 L 410.528125 6.223437 " transform="matrix(0.714286,0,0,0.714286,0,0)"/>
<path style="fill:none;stroke-width:2;stroke-linecap:butt;stroke-linejoin:round;stroke:#5181b8;stroke-opacity:1;stroke-miterlimit:4;" d="M 428.471094 14.798437 C 428.903125 17.702344 431.533594 19.73125 434.4375 19.457812 C 437.489062 19.167969 439.73125 16.460938 439.441406 13.409375 C 439.167969 10.5 436.685156 8.301562 433.753906 8.416406 C 433.190625 8.6625 432.621875 9.045312 432.075 9.5375 C 431.566406 10.095312 431.025 10.636719 430.582031 11.172656 C 430.139062 11.703125 429.7125 12.332031 429.264062 12.939062 C 428.886719 13.573437 428.613281 14.202344 428.471094 14.798437 Z M 428.471094 14.798437 " transform="matrix(0.714286,0,0,0.714286,0,0)"/>
<path style="fill:none;stroke-width:2;stroke-linecap:round;stroke-linejoin:miter;stroke:#5181b8;stroke-opacity:1;stroke-dasharray:2.326684,0.673316;stroke-dashoffset:2.663342;stroke-miterlimit:4;" d="M 442.957812 13.152344 L 445.949219 12.873437 " transform="matrix(0.714286,0,0,0.714286,0,0)"/>
<path style="fill:none;stroke-width:2;stroke-linecap:round;stroke-linejoin:miter;stroke:#5181b8;stroke-opacity:1;stroke-dasharray:2.326633,0.673301;stroke-dashoffset:2.663283;stroke-miterlimit:4;" d="M 439.211719 21.339062 L 440.950781 23.783594 " transform="matrix(0.714286,0,0,0.714286,0,0)"/>
<path style="fill:none;stroke-width:2;stroke-linecap:round;stroke-linejoin:miter;stroke:#5181b8;stroke-opacity:1;stroke-dasharray:2.326633,0.673301;stroke-dashoffset:2.663283;stroke-miterlimit:4;" d="M 430.253906 22.18125 L 429.001562 24.910156 " transform="matrix(0.714286,0,0,0.714286,0,0)"/>
<path style="fill:none;stroke-width:2;stroke-linecap:round;stroke-linejoin:miter;stroke:#5181b8;stroke-opacity:1;stroke-dasharray:2.326684,0.673316;stroke-dashoffset:2.663342;stroke-miterlimit:4;" d="M 422.050781 15.126562 L 425.042187 14.847656 " transform="matrix(0.714286,0,0,0.714286,0,0)"/>
<path style="fill:none;stroke-width:2;stroke-linecap:round;stroke-linejoin:miter;stroke:#5181b8;stroke-opacity:1;stroke-dasharray:2.326633,0.673301;stroke-dashoffset:2.663283;stroke-miterlimit:4;" d="M 427.049219 4.216406 L 428.788281 6.660937 " transform="matrix(0.714286,0,0,0.714286,0,0)"/>
<path style="fill:none;stroke-width:2;stroke-linecap:round;stroke-linejoin:miter;stroke:#5181b8;stroke-opacity:1;stroke-dasharray:2.326633,0.673301;stroke-dashoffset:2.663283;stroke-miterlimit:4;" d="M 438.998437 3.089844 L 437.746094 5.81875 " transform="matrix(0.714286,0,0,0.714286,0,0)"/>
<path style="fill:none;stroke-width:2;stroke-linecap:butt;stroke-linejoin:round;stroke:#5181b8;stroke-opacity:1;stroke-miterlimit:4;" d="M 456.689844 15.164844 C 457.313281 17.986719 460.053125 19.791406 462.885937 19.282812 C 465.833594 18.752344 467.791406 15.935937 467.260937 12.99375 C 466.752344 10.160937 464.110937 8.219531 461.245312 8.613281 C 460.660156 8.864844 460.096875 9.253125 459.577344 9.750781 C 459.107031 10.286719 458.625781 10.833594 458.242969 11.385937 C 457.860156 11.938281 457.515625 12.578125 457.182031 13.207031 C 456.897656 13.86875 456.728125 14.530469 456.689844 15.164844 Z M 456.689844 15.164844 " transform="matrix(0.714286,0,0,0.714286,0,0)"/>
<path style="fill:none;stroke-width:2;stroke-linecap:round;stroke-linejoin:miter;stroke:#5181b8;stroke-opacity:1;stroke-dasharray:2.443296,0.556704;stroke-dashoffset:2.721648;stroke-miterlimit:4;" d="M 470.859375 12.408594 L 473.8125 11.878125 " transform="matrix(0.714286,0,0,0.714286,0,0)"/>
<path style="fill:none;stroke-width:2;stroke-linecap:round;stroke-linejoin:miter;stroke:#5181b8;stroke-opacity:1;stroke-dasharray:2.443242,0.556692;stroke-dashoffset:2.721588;stroke-miterlimit:4;" d="M 467.807812 20.874219 L 469.74375 23.171094 " transform="matrix(0.714286,0,0,0.714286,0,0)"/>
<path style="fill:none;stroke-width:2;stroke-linecap:round;stroke-linejoin:miter;stroke:#5181b8;stroke-opacity:1;stroke-dasharray:2.443242,0.556692;stroke-dashoffset:2.721588;stroke-miterlimit:4;" d="M 458.948437 22.465625 L 457.93125 25.2875 " transform="matrix(0.714286,0,0,0.714286,0,0)"/>
<path style="fill:none;stroke-width:2;stroke-linecap:round;stroke-linejoin:miter;stroke:#5181b8;stroke-opacity:1;stroke-dasharray:2.443296,0.556704;stroke-dashoffset:2.721648;stroke-miterlimit:4;" d="M 450.1875 16.121875 L 453.140625 15.591406 " transform="matrix(0.714286,0,0,0.714286,0,0)"/>
<path style="fill:none;stroke-width:2;stroke-linecap:round;stroke-linejoin:miter;stroke:#5181b8;stroke-opacity:1;stroke-dasharray:2.443242,0.556692;stroke-dashoffset:2.721588;stroke-miterlimit:4;" d="M 454.25625 4.828906 L 456.192187 7.125781 " transform="matrix(0.714286,0,0,0.714286,0,0)"/>
<path style="fill:none;stroke-width:2;stroke-linecap:round;stroke-linejoin:miter;stroke:#5181b8;stroke-opacity:1;stroke-dasharray:2.443242,0.556692;stroke-dashoffset:2.721588;stroke-miterlimit:4;" d="M 466.06875 2.7125 L 465.051562 5.534375 " transform="matrix(0.714286,0,0,0.714286,0,0)"/>
<path style="fill:none;stroke-width:2;stroke-linecap:butt;stroke-linejoin:round;stroke:#5181b8;stroke-opacity:1;stroke-miterlimit:4;" d="M 484.88125 15.454687 C 485.66875 18.2 488.496094 19.807812 491.252344 19.107812 C 494.090625 18.385937 495.807812 15.498437 495.085937 12.665625 C 494.385937 9.903906 491.624219 8.192187 488.835156 8.810156 C 488.239062 9.067187 487.675781 9.466406 487.178125 9.969531 C 486.735156 10.489062 486.303125 11.035937 485.969531 11.604687 C 485.630469 12.1625 485.357031 12.802344 485.116406 13.442187 C 484.914062 14.120312 484.832031 14.803906 484.88125 15.454687 Z M 484.88125 15.454687 " transform="matrix(0.714286,0,0,0.714286,0,0)"/>
<path style="fill:none;stroke-width:2;stroke-linecap:round;stroke-linejoin:miter;stroke:#5181b8;stroke-opacity:1;stroke-dasharray:2.542854,0.457146;stroke-dashoffset:2.771427;stroke-miterlimit:4;" d="M 498.722656 11.785156 L 501.632031 11.046875 " transform="matrix(0.714286,0,0,0.714286,0,0)"/>
<path style="fill:none;stroke-width:2;stroke-linecap:round;stroke-linejoin:miter;stroke:#5181b8;stroke-opacity:1;stroke-dasharray:2.542798,0.457136;stroke-dashoffset:2.771366;stroke-miterlimit:4;" d="M 496.278125 20.447656 L 498.372656 22.596875 " transform="matrix(0.714286,0,0,0.714286,0,0)"/>
<path style="fill:none;stroke-width:2;stroke-linecap:round;stroke-linejoin:miter;stroke:#5181b8;stroke-opacity:1;stroke-dasharray:2.542798,0.457136;stroke-dashoffset:2.771366;stroke-miterlimit:4;" d="M 487.555469 22.6625 L 486.746094 25.55 " transform="matrix(0.714286,0,0,0.714286,0,0)"/>
<path style="fill:none;stroke-width:2;stroke-linecap:round;stroke-linejoin:miter;stroke:#5181b8;stroke-opacity:1;stroke-dasharray:2.542854,0.457146;stroke-dashoffset:2.771427;stroke-miterlimit:4;" d="M 478.367969 16.953125 L 481.277344 16.214844 " transform="matrix(0.714286,0,0,0.714286,0,0)"/>
<path style="fill:none;stroke-width:2;stroke-linecap:round;stroke-linejoin:miter;stroke:#5181b8;stroke-opacity:1;stroke-dasharray:2.542798,0.457136;stroke-dashoffset:2.771366;stroke-miterlimit:4;" d="M 481.627344 5.403125 L 483.721875 7.552344 " transform="matrix(0.714286,0,0,0.714286,0,0)"/>
<path style="fill:none;stroke-width:2;stroke-linecap:round;stroke-linejoin:miter;stroke:#5181b8;stroke-opacity:1;stroke-dasharray:2.542798,0.457136;stroke-dashoffset:2.771366;stroke-miterlimit:4;" d="M 493.253906 2.45 L 492.444531 5.3375 " transform="matrix(0.714286,0,0,0.714286,0,0)"/>
<path style="fill:none;stroke-width:2;stroke-linecap:butt;stroke-linejoin:round;stroke:#5181b8;stroke-opacity:1;stroke-miterlimit:4;" d="M 513.05625 15.695312 C 513.975 18.369531 516.8625 19.807812 519.553125 18.94375 C 522.292969 18.06875 523.802344 15.132031 522.927344 12.392187 C 522.06875 9.701562 519.219531 8.186719 516.5125 8.990625 C 515.894531 9.264062 515.336719 9.674219 514.860937 10.182812 C 514.434375 10.691406 514.040625 11.238281 513.745312 11.8125 C 513.455469 12.38125 513.236719 13.015625 513.072656 13.655469 C 512.941406 14.339062 512.925 15.033594 513.05625 15.695312 Z M 513.05625 15.695312 " transform="matrix(0.714286,0,0,0.714286,0,0)"/>
<path style="fill:none;stroke-width:2;stroke-linecap:round;stroke-linejoin:miter;stroke:#5181b8;stroke-opacity:1;stroke-dasharray:2.627904,0.372096;stroke-dashoffset:2.813952;stroke-miterlimit:4;" d="M 526.569531 11.254687 L 529.429688 10.341406 " transform="matrix(0.714286,0,0,0.714286,0,0)"/>
<path style="fill:none;stroke-width:2;stroke-linecap:round;stroke-linejoin:miter;stroke:#5181b8;stroke-opacity:1;stroke-dasharray:2.627846,0.372088;stroke-dashoffset:2.81389;stroke-miterlimit:4;" d="M 524.660937 20.053906 L 526.88125 22.066406 " transform="matrix(0.714286,0,0,0.714286,0,0)"/>
<path style="fill:none;stroke-width:2;stroke-linecap:round;stroke-linejoin:miter;stroke:#5181b8;stroke-opacity:1;stroke-dasharray:2.627846,0.372088;stroke-dashoffset:2.81389;stroke-miterlimit:4;" d="M 516.091406 22.79375 L 515.451563 25.725 " transform="matrix(0.714286,0,0,0.714286,0,0)"/>
<path style="fill:none;stroke-width:2;stroke-linecap:round;stroke-linejoin:miter;stroke:#5181b8;stroke-opacity:1;stroke-dasharray:2.627904,0.372096;stroke-dashoffset:2.813952;stroke-miterlimit:4;" d="M 506.570312 17.658594 L 509.430469 16.745313 " transform="matrix(0.714286,0,0,0.714286,0,0)"/>
<path style="fill:none;stroke-width:2;stroke-linecap:round;stroke-linejoin:miter;stroke:#5181b8;stroke-opacity:1;stroke-dasharray:2.627846,0.372088;stroke-dashoffset:2.81389;stroke-miterlimit:4;" d="M 509.11875 5.933594 L 511.339062 7.946094 " transform="matrix(0.714286,0,0,0.714286,0,0)"/>
<path style="fill:none;stroke-width:2;stroke-linecap:round;stroke-linejoin:miter;stroke:#5181b8;stroke-opacity:1;stroke-dasharray:2.627846,0.372088;stroke-dashoffset:2.81389;stroke-miterlimit:4;" d="M 520.548437 2.275 L 519.908594 5.20625 " transform="matrix(0.714286,0,0,0.714286,0,0)"/>
<path style="fill:none;stroke-width:2;stroke-linecap:butt;stroke-linejoin:round;stroke:#5181b8;stroke-opacity:1;stroke-miterlimit:4;" d="M 541.209375 15.886719 C 542.2375 18.495312 545.174219 19.791406 547.79375 18.796094 C 550.451562 17.795312 551.785937 14.825781 550.785156 12.167969 C 549.789844 9.548437 546.880469 8.203125 544.244531 9.160156 C 543.621094 9.45 543.063281 9.871094 542.603906 10.385156 C 542.19375 10.877344 541.832812 11.429688 541.575781 12.003906 C 541.313281 12.578125 541.138281 13.207031 541.045312 13.846875 C 540.963281 14.530469 541.0125 15.225 541.209375 15.886719 Z M 541.209375 15.886719 " transform="matrix(0.714286,0,0,0.714286,0,0)"/>
<path style="fill:none;stroke-width:2;stroke-linecap:round;stroke-linejoin:miter;stroke:#5181b8;stroke-opacity:1;stroke-dasharray:2.700504,0.299496;stroke-dashoffset:2.850252;stroke-miterlimit:4;" d="M 554.416406 10.817187 L 557.221875 9.75625 " transform="matrix(0.714286,0,0,0.714286,0,0)"/>
<path style="fill:none;stroke-width:2;stroke-linecap:round;stroke-linejoin:miter;stroke:#5181b8;stroke-opacity:1;stroke-dasharray:2.700445,0.299489;stroke-dashoffset:2.85019;stroke-miterlimit:4;" d="M 552.967187 19.698437 L 555.291406 21.596094 " transform="matrix(0.714286,0,0,0.714286,0,0)"/>
<path style="fill:none;stroke-width:2;stroke-linecap:round;stroke-linejoin:miter;stroke:#5181b8;stroke-opacity:1;stroke-dasharray:2.700445,0.299489;stroke-dashoffset:2.85019;stroke-miterlimit:4;" d="M 544.550781 22.88125 L 544.064062 25.845312 " transform="matrix(0.714286,0,0,0.714286,0,0)"/>
<path style="fill:none;stroke-width:2;stroke-linecap:round;stroke-linejoin:miter;stroke:#5181b8;stroke-opacity:1;stroke-dasharray:2.700504,0.299496;stroke-dashoffset:2.850252;stroke-miterlimit:4;" d="M 534.778125 18.24375 L 537.583594 17.182812 " transform="matrix(0.714286,0,0,0.714286,0,0)"/>
<path style="fill:none;stroke-width:2;stroke-linecap:round;stroke-linejoin:miter;stroke:#5181b8;stroke-opacity:1;stroke-dasharray:2.700445,0.299489;stroke-dashoffset:2.85019;stroke-miterlimit:4;" d="M 536.708594 6.403906 L 539.032812 8.301562 " transform="matrix(0.714286,0,0,0.714286,0,0)"/>
<path style="fill:none;stroke-width:2;stroke-linecap:round;stroke-linejoin:miter;stroke:#5181b8;stroke-opacity:1;stroke-dasharray:2.700445,0.299489;stroke-dashoffset:2.85019;stroke-miterlimit:4;" d="M 547.935937 2.154687 L 547.449219 5.11875 " transform="matrix(0.714286,0,0,0.714286,0,0)"/>
<path style="fill:none;stroke-width:2;stroke-linecap:butt;stroke-linejoin:round;stroke:#5181b8;stroke-opacity:1;stroke-miterlimit:4;" d="M 569.340625 16.050781 C 570.461719 18.604687 573.43125 19.769531 575.990625 18.664844 C 578.571875 17.560156 579.769531 14.563281 578.659375 11.9875 C 577.560156 9.428125 574.601562 8.225 572.03125 9.302344 C 571.396875 9.608594 570.85 10.040625 570.401562 10.565625 C 570.002344 11.052344 569.66875 11.604687 569.439062 12.178906 C 569.209375 12.758594 569.072656 13.382031 569.023438 14.016406 C 568.990625 14.7 569.089062 15.394531 569.340625 16.050781 Z M 569.340625 16.050781 " transform="matrix(0.714286,0,0,0.714286,0,0)"/>
<path style="fill:none;stroke-width:2;stroke-linecap:round;stroke-linejoin:miter;stroke:#5181b8;stroke-opacity:1;stroke-dasharray:2.762327,0.237673;stroke-dashoffset:2.881164;stroke-miterlimit:4;" d="M 582.26875 10.445312 L 585.025 9.264062 " transform="matrix(0.714286,0,0,0.714286,0,0)"/>
<path style="fill:none;stroke-width:2;stroke-linecap:round;stroke-linejoin:miter;stroke:#5181b8;stroke-opacity:1;stroke-dasharray:2.762267,0.237667;stroke-dashoffset:2.8811;stroke-miterlimit:4;" d="M 581.213281 19.386719 L 583.614062 21.180469 " transform="matrix(0.714286,0,0,0.714286,0,0)"/>
<path style="fill:none;stroke-width:2;stroke-linecap:round;stroke-linejoin:miter;stroke:#5181b8;stroke-opacity:1;stroke-dasharray:2.762267,0.237667;stroke-dashoffset:2.8811;stroke-miterlimit:4;" d="M 572.944531 22.935937 L 572.589062 25.916406 " transform="matrix(0.714286,0,0,0.714286,0,0)"/>
<path style="fill:none;stroke-width:2;stroke-linecap:round;stroke-linejoin:miter;stroke:#5181b8;stroke-opacity:1;stroke-dasharray:2.762327,0.237673;stroke-dashoffset:2.881164;stroke-miterlimit:4;" d="M 562.975 18.735937 L 565.73125 17.554688 " transform="matrix(0.714286,0,0,0.714286,0,0)"/>
<path style="fill:none;stroke-width:2;stroke-linecap:round;stroke-linejoin:miter;stroke:#5181b8;stroke-opacity:1;stroke-dasharray:2.762267,0.237667;stroke-dashoffset:2.8811;stroke-miterlimit:4;" d="M 564.385937 6.819531 L 566.786719 8.613281 " transform="matrix(0.714286,0,0,0.714286,0,0)"/>
<path style="fill:none;stroke-width:2;stroke-linecap:round;stroke-linejoin:miter;stroke:#5181b8;stroke-opacity:1;stroke-dasharray:2.762267,0.237667;stroke-dashoffset:2.8811;stroke-miterlimit:4;" d="M 575.410937 2.083594 L 575.055469 5.064062 " transform="matrix(0.714286,0,0,0.714286,0,0)"/>
<path style="fill:none;stroke-width:2;stroke-linecap:butt;stroke-linejoin:round;stroke:#5181b8;stroke-opacity:1;stroke-miterlimit:4;" d="M 597.45 16.1875 C 598.653125 18.686719 601.65 19.747656 604.154687 18.555469 C 606.675781 17.363281 607.747656 14.35 606.55 11.828906 C 605.357812 9.324219 602.366406 8.252344 599.85625 9.428125 C 599.221875 9.750781 598.675 10.19375 598.242969 10.71875 C 597.849219 11.210938 597.542969 11.757812 597.335156 12.3375 C 597.127344 12.917187 597.023438 13.540625 597.017969 14.164062 C 597.017969 14.847656 597.160156 15.536719 597.45 16.1875 Z M 597.45 16.1875 " transform="matrix(0.714286,0,0,0.714286,0,0)"/>
<path style="fill:none;stroke-width:2;stroke-linecap:round;stroke-linejoin:miter;stroke:#5181b8;stroke-opacity:1;stroke-dasharray:2.814736,0.185264;stroke-dashoffset:2.907368;stroke-miterlimit:4;" d="M 610.132031 10.139062 L 612.839062 8.853906 " transform="matrix(0.714286,0,0,0.714286,0,0)"/>
<path style="fill:none;stroke-width:2;stroke-linecap:round;stroke-linejoin:miter;stroke:#5181b8;stroke-opacity:1;stroke-dasharray:2.814675,0.185259;stroke-dashoffset:2.907304;stroke-miterlimit:4;" d="M 609.410156 19.107812 L 611.876562 20.814062 " transform="matrix(0.714286,0,0,0.714286,0,0)"/>
<path style="fill:none;stroke-width:2;stroke-linecap:round;stroke-linejoin:miter;stroke:#5181b8;stroke-opacity:1;stroke-dasharray:2.814675,0.185259;stroke-dashoffset:2.907304;stroke-miterlimit:4;" d="M 601.278125 22.96875 L 601.0375 25.960156 " transform="matrix(0.714286,0,0,0.714286,0,0)"/>
<path style="fill:none;stroke-width:2;stroke-linecap:round;stroke-linejoin:miter;stroke:#5181b8;stroke-opacity:1;stroke-dasharray:2.814736,0.185264;stroke-dashoffset:2.907368;stroke-miterlimit:4;" d="M 591.160937 19.146094 L 593.867969 17.860937 " transform="matrix(0.714286,0,0,0.714286,0,0)"/>
<path style="fill:none;stroke-width:2;stroke-linecap:round;stroke-linejoin:miter;stroke:#5181b8;stroke-opacity:1;stroke-dasharray:2.814675,0.185259;stroke-dashoffset:2.907304;stroke-miterlimit:4;" d="M 592.123437 7.185937 L 594.589844 8.892187 " transform="matrix(0.714286,0,0,0.714286,0,0)"/>
<path style="fill:none;stroke-width:2;stroke-linecap:round;stroke-linejoin:miter;stroke:#5181b8;stroke-opacity:1;stroke-dasharray:2.814675,0.185259;stroke-dashoffset:2.907304;stroke-miterlimit:4;" d="M 602.9625 2.039844 L 602.721875 5.03125 " transform="matrix(0.714286,0,0,0.714286,0,0)"/>
<path style="fill:none;stroke-width:2;stroke-linecap:butt;stroke-linejoin:round;stroke:#5181b8;stroke-opacity:1;stroke-miterlimit:4;" d="M 625.5375 16.302344 C 626.811719 18.763281 629.830469 19.725781 632.291406 18.4625 C 634.757812 17.19375 635.725781 14.169531 634.4625 11.703125 C 633.19375 9.242188 630.175 8.26875 627.714062 9.532031 C 627.074219 9.865625 626.538281 10.319531 626.117188 10.855469 C 625.734375 11.342187 625.444531 11.894531 625.258594 12.479687 C 625.072656 13.059375 624.990625 13.677344 625.0125 14.300781 C 625.045312 14.978906 625.214844 15.6625 625.5375 16.302344 Z M 625.5375 16.302344 " transform="matrix(0.714286,0,0,0.714286,0,0)"/>
<path style="fill:none;stroke-width:2;stroke-linecap:round;stroke-linejoin:miter;stroke:#5181b8;stroke-opacity:1;stroke-dasharray:2.858855,0.141145;stroke-dashoffset:2.929427;stroke-miterlimit:4;" d="M 638.00625 9.882031 L 640.669531 8.514844 " transform="matrix(0.714286,0,0,0.714286,0,0)"/>
<path style="fill:none;stroke-width:2;stroke-linecap:round;stroke-linejoin:miter;stroke:#5181b8;stroke-opacity:1;stroke-dasharray:2.858792,0.141142;stroke-dashoffset:2.929363;stroke-miterlimit:4;" d="M 637.56875 18.872656 L 640.089844 20.496875 " transform="matrix(0.714286,0,0,0.714286,0,0)"/>
<path style="fill:none;stroke-width:2;stroke-linecap:round;stroke-linejoin:miter;stroke:#5181b8;stroke-opacity:1;stroke-dasharray:2.858792,0.141142;stroke-dashoffset:2.929363;stroke-miterlimit:4;" d="M 629.5625 22.990625 L 629.414844 25.9875 " transform="matrix(0.714286,0,0,0.714286,0,0)"/>
<path style="fill:none;stroke-width:2;stroke-linecap:round;stroke-linejoin:miter;stroke:#5181b8;stroke-opacity:1;stroke-dasharray:2.858855,0.141145;stroke-dashoffset:2.929427;stroke-miterlimit:4;" d="M 619.330469 19.485156 L 621.99375 18.117969 " transform="matrix(0.714286,0,0,0.714286,0,0)"/>
<path style="fill:none;stroke-width:2;stroke-linecap:round;stroke-linejoin:miter;stroke:#5181b8;stroke-opacity:1;stroke-dasharray:2.858792,0.141142;stroke-dashoffset:2.929363;stroke-miterlimit:4;" d="M 619.910156 7.503125 L 622.43125 9.127344 " transform="matrix(0.714286,0,0,0.714286,0,0)"/>
<path style="fill:none;stroke-width:2;stroke-linecap:round;stroke-linejoin:miter;stroke:#5181b8;stroke-opacity:1;stroke-dasharray:2.858792,0.141142;stroke-dashoffset:2.929363;stroke-miterlimit:4;" d="M 630.585156 2.0125 L 630.4375 5.009375 " transform="matrix(0.714286,0,0,0.714286,0,0)"/>
<path style="fill:none;stroke-width:2;stroke-linecap:butt;stroke-linejoin:round;stroke:#5181b8;stroke-opacity:1;stroke-miterlimit:4;" d="M 653.614062 16.40625 C 654.942969 18.828906 657.983594 19.714844 660.40625 18.391406 C 662.828906 17.0625 663.714844 14.016406 662.385937 11.59375 C 661.0625 9.171094 658.021875 8.285156 655.599219 9.608594 C 654.964844 9.958594 654.434375 10.423437 654.024219 10.970312 C 653.652344 11.4625 653.373437 12.014844 653.203906 12.6 C 653.034375 13.185156 652.96875 13.803125 653.017969 14.415625 C 653.072656 15.09375 653.264062 15.771875 653.614062 16.40625 Z M 653.614062 16.40625 " transform="matrix(0.714286,0,0,0.714286,0,0)"/>
<path style="fill:none;stroke-width:2;stroke-linecap:round;stroke-linejoin:miter;stroke:#5181b8;stroke-opacity:1;stroke-dasharray:2.895616,0.104384;stroke-dashoffset:2.947808;stroke-miterlimit:4;" d="M 665.891406 9.674219 L 668.521875 8.235938 " transform="matrix(0.714286,0,0,0.714286,0,0)"/>
<path style="fill:none;stroke-width:2;stroke-linecap:round;stroke-linejoin:miter;stroke:#5181b8;stroke-opacity:1;stroke-dasharray:2.895552,0.104382;stroke-dashoffset:2.947743;stroke-miterlimit:4;" d="M 665.689062 18.670312 L 668.253906 20.228906 " transform="matrix(0.714286,0,0,0.714286,0,0)"/>
<path style="fill:none;stroke-width:2;stroke-linecap:round;stroke-linejoin:miter;stroke:#5181b8;stroke-opacity:1;stroke-dasharray:2.895552,0.104382;stroke-dashoffset:2.947743;stroke-miterlimit:4;" d="M 657.797656 22.996094 L 657.732031 25.998437 " transform="matrix(0.714286,0,0,0.714286,0,0)"/>
<path style="fill:none;stroke-width:2;stroke-linecap:round;stroke-linejoin:miter;stroke:#5181b8;stroke-opacity:1;stroke-dasharray:2.895616,0.104384;stroke-dashoffset:2.947808;stroke-miterlimit:4;" d="M 647.478125 19.764062 L 650.108594 18.325781 " transform="matrix(0.714286,0,0,0.714286,0,0)"/>
<path style="fill:none;stroke-width:2;stroke-linecap:round;stroke-linejoin:miter;stroke:#5181b8;stroke-opacity:1;stroke-dasharray:2.895552,0.104382;stroke-dashoffset:2.947743;stroke-miterlimit:4;" d="M 647.746094 7.771094 L 650.310937 9.329687 " transform="matrix(0.714286,0,0,0.714286,0,0)"/>
<path style="fill:none;stroke-width:2;stroke-linecap:round;stroke-linejoin:miter;stroke:#5181b8;stroke-opacity:1;stroke-dasharray:2.895552,0.104382;stroke-dashoffset:2.947743;stroke-miterlimit:4;" d="M 658.267969 2.001562 L 658.202344 5.003906 " transform="matrix(0.714286,0,0,0.714286,0,0)"/>
<path style="fill:none;stroke-width:2;stroke-linecap:butt;stroke-linejoin:round;stroke:#5181b8;stroke-opacity:1;stroke-miterlimit:4;" d="M 681.66875 16.499219 C 683.046875 18.889062 686.103906 19.709375 688.499219 18.33125 C 690.889062 16.953125 691.709375 13.896094 690.33125 11.500781 C 688.953125 9.110937 685.896094 8.290625 683.500781 9.66875 C 682.877344 10.029687 682.357812 10.505469 681.958594 11.057812 C 681.592187 11.555469 681.329687 12.113281 681.171094 12.703906 C 681.0125 13.289062 680.963281 13.907031 681.023438 14.519531 C 681.094531 15.197656 681.307812 15.870312 681.66875 16.499219 Z M 681.66875 16.499219 " transform="matrix(0.714286,0,0,0.714286,0,0)"/>
<path style="fill:none;stroke-width:2;stroke-linecap:round;stroke-linejoin:miter;stroke:#5181b8;stroke-opacity:1;stroke-dasharray:2.925803,0.0741974;stroke-dashoffset:2.962901;stroke-miterlimit:4;" d="M 693.798437 9.504687 L 696.396094 8.00625 " transform="matrix(0.714286,0,0,0.714286,0,0)"/>
<path style="fill:none;stroke-width:2;stroke-linecap:round;stroke-linejoin:miter;stroke:#5181b8;stroke-opacity:1;stroke-dasharray:2.925738,0.0741958;stroke-dashoffset:2.962836;stroke-miterlimit:4;" d="M 693.792969 18.50625 L 696.385156 20.004687 " transform="matrix(0.714286,0,0,0.714286,0,0)"/>
<path style="fill:none;stroke-width:2;stroke-linecap:round;stroke-linejoin:miter;stroke:#5181b8;stroke-opacity:1;stroke-dasharray:2.925738,0.0741958;stroke-dashoffset:2.962836;stroke-miterlimit:4;" d="M 685.994531 23.001562 L 685.989062 25.998437 " transform="matrix(0.714286,0,0,0.714286,0,0)"/>
<path style="fill:none;stroke-width:2;stroke-linecap:round;stroke-linejoin:miter;stroke:#5181b8;stroke-opacity:1;stroke-dasharray:2.925803,0.0741974;stroke-dashoffset:2.962901;stroke-miterlimit:4;" d="M 675.603906 19.99375 L 678.201562 18.495312 " transform="matrix(0.714286,0,0,0.714286,0,0)"/>
<path style="fill:none;stroke-width:2;stroke-linecap:round;stroke-linejoin:miter;stroke:#5181b8;stroke-opacity:1;stroke-dasharray:2.925738,0.0741958;stroke-dashoffset:2.962836;stroke-miterlimit:4;" d="M 675.614844 7.995312 L 678.207031 9.49375 " transform="matrix(0.714286,0,0,0.714286,0,0)"/>
<path style="fill:none;stroke-width:2;stroke-linecap:round;stroke-linejoin:miter;stroke:#5181b8;stroke-opacity:1;stroke-dasharray:2.925738,0.0741958;stroke-dashoffset:2.962836;stroke-miterlimit:4;" d="M 686.010937 2.001562 L 686.005469 4.998437 " transform="matrix(0.714286,0,0,0.714286,0,0)"/>
</g>
</svg>